<svg width="32" height="32" viewBox="0 0 32 32" fill="none" xmlns="http://www.w3.org/2000/svg">
<path d="M24.6668 26.6667C24.6668 27.0334 24.3682 27.3334 24.0002 27.3334H16.3572C15.9743 28.0681 15.4892 28.741 14.9207 29.3334H24.0002C25.4722 29.3334 26.6668 28.1387 26.6668 26.6667V13.1041C26.6668 12.3974 26.3855 11.7187 25.8855 11.2187L18.1135 3.44808C18.0935 3.42815 18.071 3.41085 18.0486 3.39368C18.0319 3.38097 18.0155 3.36835 18.0002 3.35475C17.9055 3.26941 17.8122 3.18541 17.7082 3.11475C17.6744 3.092 17.6376 3.07405 17.6008 3.05617C17.5795 3.04576 17.5582 3.03537 17.5375 3.02408C17.5152 3.01153 17.4931 2.99871 17.4708 2.98585C17.3986 2.94404 17.326 2.90205 17.2495 2.86941C16.9868 2.76008 16.7042 2.70541 16.4175 2.68541C16.3912 2.68373 16.3652 2.68019 16.3391 2.67663C16.303 2.67169 16.2667 2.66675 16.2295 2.66675H8.00016C6.52816 2.66675 5.3335 3.86141 5.3335 5.33341V15.331C5.96572 15.0673 6.63588 14.8763 7.3335 14.7686V5.33341C7.3335 4.96675 7.63216 4.66675 8.00016 4.66675H16.0002V10.6667C16.0002 12.1387 17.1948 13.3334 18.6668 13.3334H24.6668V26.6667ZM18.0002 6.16141L23.1708 11.3334H18.6668C18.2988 11.3334 18.0002 11.0334 18.0002 10.6667V6.16141ZM16.0002 23.3334C16.0002 19.2833 12.7169 16.0001 8.66683 16.0001C4.61674 16.0001 1.3335 19.2833 1.3335 23.3334C1.3335 27.3835 4.61674 30.6667 8.66683 30.6667C12.7169 30.6667 16.0002 27.3835 16.0002 23.3334ZM9.33436 24.0001L9.33498 27.3381C9.33498 27.7063 9.0365 28.0047 8.66831 28.0047C8.30012 28.0047 8.00164 27.7063 8.00164 27.3381L8.00103 24.0001H4.66096C4.29314 24.0001 3.99495 23.7017 3.99495 23.3334C3.99495 22.9653 4.29314 22.6667 4.66096 22.6667H8.00078L8.00016 19.3325C8.00016 18.9642 8.29864 18.6658 8.66683 18.6658C9.03502 18.6658 9.3335 18.9642 9.3335 19.3325L9.33411 22.6667H12.6623C13.0301 22.6667 13.3283 22.9653 13.3283 23.3334C13.3283 23.7017 13.0301 24.0001 12.6623 24.0001H9.33436Z" fill="#555555"/>
</svg>
